<?xml version="1.0" standalone="no"?>
<!DOCTYPE svg PUBLIC "-//W3C//DTD SVG 20010904//EN"
 "http://www.w3.org/TR/2001/REC-SVG-20010904/DTD/svg10.dtd">
<svg version="1.0" xmlns="http://www.w3.org/2000/svg"
 width="512.000000pt" height="512.000000pt" viewBox="0 0 512.000000 512.000000"
 preserveAspectRatio="xMidYMid meet">
<metadata>
Created by potrace 1.16, written by Peter Selinger 2001-2019
</metadata>
<g transform="translate(0.000000,512.000000) scale(0.100000,-0.100000)"
fill="#000000" stroke="none">
<path d="M203 4958 c-174 -172 -196 -198 -191 -231 3 -19 32 5 192 163 103
102 192 193 197 203 8 14 5 17 -17 17 -21 0 -60 -33 -181 -152z"/>
<path d="M303 4858 c-140 -139 -264 -265 -275 -281 -10 -15 -18 -37 -16 -50 3
-18 49 23 292 263 158 157 292 293 297 303 8 14 5 17 -17 17 -22 0 -75 -47
-281 -252z"/>
<path d="M402 4758 c-194 -194 -362 -365 -373 -381 -11 -15 -19 -37 -17 -50 4
-18 67 40 392 363 213 212 392 393 397 403 8 14 5 17 -18 17 -22 0 -89 -62
-381 -352z"/>
<path d="M502 4658 c-249 -249 -462 -465 -473 -481 -11 -15 -19 -37 -17 -50 4
-18 84 57 492 463 268 267 492 493 497 503 8 14 5 17 -18 17 -22 0 -104 -76
-481 -452z"/>
<path d="M602 4558 c-304 -304 -562 -565 -573 -581 -11 -15 -19 -37 -17 -50 4
-18 101 75 592 563 323 322 592 593 597 603 8 14 5 17 -18 17 -23 0 -118 -91
-581 -552z"/>
<path d="M702 4458 c-359 -359 -662 -665 -673 -681 -11 -15 -19 -37 -17 -50 4
-18 118 92 692 663 378 377 692 693 697 703 8 14 5 17 -18 17 -23 0 -133 -106
-681 -652z"/>
<path d="M1345 4900 c-116 -115 -210 -210 -207 -210 3 0 -3 -9 -13 -20 -10
-11 -23 -17 -29 -13 -6 3 -7 2 -3 -2 10 -12 -613 -635 -629 -628 -6 2 -15 0
-19 -6 -4 -7 1 -8 12 -4 17 6 17 5 -1 -15 -10 -12 -24 -19 -30 -15 -6 3 -8 3
-5 0 3 -4 -80 -91 -184 -194 -209 -208 -230 -233 -225 -266 3 -18 117 93 654
632 464 467 654 652 664 646 8 -5 11 -4 7 2 -3 5 53 68 124 139 151 149 162
164 123 164 -21 0 -69 -42 -239 -210z"/>
<path d="M1661 5015 c-55 -52 -97 -95 -93 -95 4 0 -297 -303 -667 -674 -371
-371 -679 -673 -683 -670 -5 3 -7 2 -6 -3 2 -4 1 -8 -2 -9 -3 0 -49 -46 -103
-102 -71 -74 -97 -109 -97 -127 0 -22 3 -24 17 -16 10 6 41 34 69 63 147 154
1570 1578 1577 1578 9 0 117 113 130 136 6 10 1 14 -18 14 -18 0 -52 -26 -124
-95z"/>
<path d="M990 4135 c-728 -728 -976 -981 -978 -1001 l-4 -26 31 18 c17 10 31
23 31 29 0 13 1882 1895 1894 1894 5 0 18 13 28 30 l20 31 -24 0 c-18 0 -250
-227 -998 -975z"/>
<path d="M2387 4333 c-622 -623 -773 -779 -756 -781 17 -3 186 160 793 765
424 422 774 774 779 781 6 8 1 12 -15 12 -18 0 -215 -191 -801 -777z"/>
<path d="M2599 4344 c-420 -421 -771 -769 -780 -772 -12 -5 38 -50 189 -167
205 -158 207 -160 252 -157 l45 4 -65 -66 c-58 -59 -62 -66 -40 -66 21 0 -8
-33 -165 -190 l-190 -190 -177 0 c-98 0 -178 3 -178 7 0 4 82 90 182 190 101
101 176 183 168 183 -8 0 2 17 25 40 38 39 38 40 14 40 -16 0 -39 -14 -64 -40
-39 -40 -40 -40 -114 -40 l-75 0 28 29 c25 26 38 30 102 36 41 4 76 11 79 15
3 4 -88 79 -200 166 l-205 159 772 772 c623 623 768 773 748 773 -20 0 -189
-165 -805 -780 -613 -613 -786 -780 -805 -780 -14 0 -50 -3 -80 -6 l-55 -6
785 786 c634 635 780 786 760 786 -20 0 -191 -166 -815 -789 -639 -639 -797
-791 -825 -798 l-35 -9 89 -70 c50 -38 101 -79 115 -91 l26 -22 -67 -1 -67 0
-3 -87 c-2 -48 -2 -129 0 -180 l3 -93 67 0 67 0 -95 -95 c-76 -77 -90 -95 -72
-95 14 0 22 -6 22 -18 0 -9 -222 -239 -505 -522 -278 -278 -505 -502 -505
-498 0 4 -31 -26 -70 -68 -48 -51 -70 -83 -70 -100 0 -16 4 -23 11 -18 6 3
264 261 572 571 l562 565 3 -73 3 -73 -472 -472 c-335 -335 -477 -471 -488
-466 -9 3 -13 1 -9 -3 5 -5 -35 -52 -87 -106 -70 -73 -95 -105 -95 -124 0 -36
17 -25 119 79 47 47 88 83 93 80 4 -3 6 1 3 8 -3 8 190 208 465 483 l470 470
0 -76 0 -77 -575 -570 c-465 -461 -575 -575 -575 -596 0 -14 3 -26 6 -26 9 0
282 269 278 273 -2 1 192 198 431 437 l435 435 0 -77 0 -76 -575 -569 c-474
-469 -575 -574 -575 -596 0 -15 3 -27 7 -27 8 0 351 339 347 343 -2 2 177 183
396 402 l400 400 0 -75 0 -75 -368 -368 c-202 -202 -370 -367 -373 -367 -8 0
-376 -371 -395 -398 -8 -12 -14 -32 -12 -45 3 -19 37 11 219 191 119 116 214
213 213 215 -2 2 159 165 356 362 l360 360 0 -75 1 -75 -576 -570 c-489 -485
-575 -574 -575 -598 0 -22 3 -26 15 -19 19 10 505 494 505 502 0 3 142 147
315 320 l315 315 0 -75 0 -75 -284 -284 c-210 -210 -288 -282 -301 -278 -10 4
-14 3 -9 -4 3 -6 -116 -133 -275 -293 -230 -231 -281 -287 -281 -310 0 -22 3
-25 18 -17 9 5 143 136 296 289 192 193 284 279 295 275 14 -4 14 -3 1 6 -12
9 35 61 263 288 l277 278 0 -75 0 -75 -238 -238 c-236 -236 -238 -238 -257
-217 -10 11 -22 20 -28 20 -5 0 1 -9 14 -19 l24 -20 -332 -333 c-274 -275
-333 -339 -333 -361 0 -24 3 -26 19 -18 10 6 274 269 587 586 l567 575 76 0
76 -1 -640 -636 c-539 -535 -636 -636 -618 -640 13 -3 35 5 52 16 15 11 304
300 641 641 l613 620 76 0 76 0 -327 -327 -326 -326 -27 32 c-15 17 -29 30
-32 27 -2 -2 8 -16 23 -31 l27 -27 -309 -311 c-260 -262 -305 -311 -287 -315
13 -2 35 5 50 16 16 11 304 299 642 641 l613 621 77 0 76 -1 -638 -632 c-350
-348 -637 -635 -637 -639 0 -5 12 -8 27 -8 21 0 77 50 283 255 141 140 254
255 251 255 -3 0 167 173 379 385 l385 385 75 0 75 0 -415 -415 c-228 -228
-416 -411 -418 -405 -2 5 -8 10 -13 10 -6 0 -7 -5 -3 -11 4 -6 -86 -105 -212
-232 -170 -171 -215 -221 -200 -225 10 -2 28 1 40 8 12 6 302 295 645 641
l623 629 76 -1 77 0 -640 -637 c-529 -526 -636 -637 -618 -640 13 -2 33 4 45
12 27 19 348 337 348 345 0 3 206 212 458 464 l458 458 74 -3 73 -3 -629 -624
c-346 -343 -633 -630 -637 -637 -6 -10 -1 -14 18 -14 22 0 142 116 662 640
l635 640 77 0 76 0 -520 -520 c-286 -286 -523 -520 -526 -520 -8 0 -211 -207
-222 -225 -6 -12 -2 -15 18 -15 20 0 149 124 662 640 l636 640 76 0 76 0 -550
-550 c-302 -302 -553 -550 -556 -550 -8 0 -151 -146 -162 -166 -6 -10 -2 -14
17 -14 20 0 159 134 662 640 l637 640 76 0 76 0 -584 -583 c-330 -329 -585
-577 -588 -569 -3 6 -9 12 -15 12 -7 0 -7 -4 1 -13 8 -10 1 -23 -30 -53 -22
-21 -45 -47 -50 -57 -8 -14 -6 -17 14 -17 19 0 170 146 663 640 l638 640 75 0
76 0 -633 -633 c-347 -347 -635 -635 -639 -640 -3 -4 5 -7 19 -7 19 0 160 135
663 640 l639 640 76 0 75 0 -632 -633 c-348 -347 -636 -635 -639 -639 -4 -5 4
-8 17 -8 19 0 168 144 664 640 l640 640 75 0 75 0 -620 -620 c-503 -503 -615
-620 -595 -620 20 0 156 131 645 620 l620 620 75 0 75 0 -620 -620 c-503 -503
-615 -620 -595 -620 20 0 156 131 645 620 l620 620 75 0 75 0 -620 -621 c-498
-498 -615 -620 -592 -617 41 4 2357 2322 2357 2358 0 20 -101 -76 -540 -515
l-540 -540 0 75 0 75 540 540 c425 425 540 545 540 565 0 20 -101 -76 -540
-515 l-540 -540 0 75 0 75 540 540 c425 425 540 545 540 565 0 20 -101 -76
-540 -515 l-540 -540 0 75 0 75 560 560 c434 433 560 565 560 584 0 13 -3 21
-7 17 -5 -3 -257 -255 -560 -559 l-553 -552 0 75 0 76 560 559 c442 441 560
564 560 583 0 14 -3 22 -7 19 -5 -4 -257 -256 -560 -559 l-553 -553 0 76 0 75
560 558 c434 432 560 563 560 582 0 21 -3 23 -17 15 -10 -5 -36 -28 -57 -50
-30 -31 -43 -38 -53 -30 -9 8 -13 8 -13 1 0 -6 6 -12 13 -15 7 -3 -206 -223
-490 -508 l-503 -504 0 76 0 76 560 557 c445 442 560 562 560 582 0 19 -4 23
-14 17 -20 -11 -166 -154 -166 -162 0 -3 -211 -218 -470 -476 l-470 -470 0 74
c0 63 3 78 22 98 l21 23 -184 0 -184 0 189 189 c103 104 183 190 176 193 -7 2
234 247 534 544 450 445 546 545 546 567 0 17 -4 25 -12 22 -7 -3 -264 -259
-571 -570 l-559 -565 -76 0 -77 1 648 642 c539 536 647 647 647 670 0 15 -3
27 -7 27 -4 0 -105 -97 -224 -216 -125 -125 -222 -214 -228 -210 -6 4 -11 2
-11 -3 0 -6 6 -11 12 -11 7 0 -190 -202 -437 -450 l-450 -450 -45 0 -45 0
-190 -190 -190 -190 -180 0 -180 0 183 183 c100 100 182 186 182 190 0 4 -19
7 -42 7 l-43 0 140 140 c119 119 136 140 115 140 -19 0 -60 -35 -165 -140
l-140 -140 -75 0 -75 0 133 133 133 133 -198 154 c-109 85 -199 157 -201 160
-1 3 -21 4 -45 2 l-42 -3 703 699 c386 385 702 702 702 706 0 3 -12 6 -26 6
-21 0 -157 -132 -730 -709 -501 -504 -713 -711 -732 -715 -15 -3 -54 -8 -87
-12 l-60 -6 580 581 c318 319 581 579 582 577 2 -2 65 60 141 138 117 120 134
141 115 144 -13 2 -31 -3 -41 -10 -10 -7 -337 -333 -726 -725 l-707 -711 211
-165 c178 -138 215 -163 238 -159 22 3 8 -15 -83 -107 -95 -96 -106 -111 -85
-111 19 0 55 29 139 114 113 113 114 114 170 120 31 4 70 9 86 12 26 5 14 -11
-95 -120 -69 -69 -129 -126 -135 -126 -6 0 -96 -85 -200 -190 l-190 -190 -180
0 -179 0 184 188 c109 111 193 190 205 190 11 1 65 48 120 103 87 88 96 100
70 95 -19 -5 -64 -41 -125 -102 l-95 -94 -75 0 -75 0 85 85 c47 47 80 85 75
85 -6 0 -102 72 -215 160 -138 108 -213 160 -230 160 -20 0 101 126 650 675
371 371 676 673 678 671 4 -4 142 140 142 148 0 4 -11 6 -24 6 -17 0 -50 -23
-99 -69 -42 -38 -74 -71 -71 -73 2 -2 -304 -310 -679 -685 l-682 -681 -80 -11
c-44 -5 -81 -9 -82 -7 -1 1 319 323 711 715 484 484 718 711 726 706 8 -5 11
-4 7 2 -4 5 7 23 24 39 17 16 35 37 40 47 8 14 6 17 -14 17 -18 0 -204 -181
-788 -766z m-144 -1144 l-80 -80 -75 0 -75 0 71 71 c65 65 75 71 125 79 124
18 123 19 34 -70z m1315 -730 c0 -7 -203 -10 -590 -10 l-590 0 0 -170 0 -170
590 0 c518 0 590 -2 590 -15 0 -13 -136 -15 -1185 -13 -780 2 -1186 6 -1188
13 -1 7 200 11 586 13 l587 2 0 170 0 170 -590 0 c-387 0 -590 3 -590 10 0 7
403 10 1190 10 787 0 1190 -3 1190 -10z m0 -914 c0 -11 -180 -14 -1132 -14
-623 -1 -1159 1 -1190 4 -191 19 48 24 1132 24 1002 0 1190 -2 1190 -14z"/>
<path d="M3661 5015 c-54 -52 -101 -92 -106 -87 -4 4 -5 0 -2 -8 3 -10 -205
-225 -632 -654 -496 -498 -629 -637 -606 -632 22 5 192 168 663 639 516 516
634 629 643 617 9 -13 10 -13 6 1 -4 11 23 44 80 100 103 102 114 119 78 119
-19 0 -51 -25 -124 -95z"/>
<path d="M4155 4910 c-111 -110 -199 -200 -196 -200 3 0 -217 -223 -489 -495
-403 -403 -490 -495 -470 -495 20 0 128 103 505 480 263 263 480 478 482 476
4 -4 423 419 423 427 0 4 -12 7 -26 7 -21 0 -69 -42 -229 -200z"/>
<path d="M4310 4865 c-136 -135 -244 -245 -241 -245 3 0 -190 -196 -429 -435
-338 -338 -430 -435 -412 -435 18 0 193 168 697 667 371 366 676 672 679 680
4 9 -3 13 -21 13 -21 0 -77 -50 -273 -245z"/>
<path d="M4474 4829 c-160 -159 -287 -278 -293 -275 -7 5 -8 1 -4 -9 4 -13
-92 -115 -372 -395 l-379 -379 -71 -6 c-40 -4 -77 -10 -84 -14 -7 -5 63 -66
186 -162 109 -85 200 -157 201 -162 2 -4 9 -4 15 -1 7 4 -58 -64 -143 -150
-129 -130 -151 -156 -130 -156 18 0 65 41 185 160 119 118 168 160 186 160 13
0 49 3 79 6 l55 6 -165 -166 c-138 -139 -161 -166 -140 -166 19 0 67 42 195
169 93 93 182 173 197 177 26 9 18 16 -179 170 l-206 160 -56 -7 c-30 -4 -57
-7 -58 -5 -1 1 162 166 363 366 298 299 366 362 375 350 9 -13 10 -13 6 1 -4
11 82 103 275 295 153 153 284 287 289 297 8 14 5 17 -17 17 -23 0 -79 -51
-310 -281z"/>
<path d="M4622 4778 l-333 -333 -20 24 c-10 13 -19 19 -19 14 0 -6 9 -18 20
-28 21 -19 19 -21 -297 -338 -253 -253 -312 -317 -288 -311 22 4 115 90 335
308 744 734 972 962 981 979 8 14 5 17 -18 17 -22 0 -86 -59 -361 -332z"/>
<path d="M1087 4032 c-829 -829 -1038 -1043 -1035 -1061 2 -17 207 183 1063
1039 855 855 1055 1060 1035 1060 -20 0 -239 -214 -1063 -1038z"/>
<path d="M1187 3932 c-910 -910 -1138 -1143 -1135 -1161 2 -17 227 202 1163
1139 935 935 1155 1160 1135 1160 -20 0 -259 -234 -1163 -1138z"/>
<path d="M1287 3832 c-990 -990 -1238 -1243 -1235 -1261 2 -17 246 222 1263
1239 1015 1015 1255 1260 1235 1260 -20 0 -279 -254 -1263 -1238z"/>
<path d="M4502 4450 c-336 -338 -607 -616 -603 -618 4 -1 17 1 29 5 22 9 1127
1094 1169 1149 15 21 23 42 20 56 -4 20 -93 -67 -615 -592z"/>
<path d="M4799 4554 l-307 -307 -27 27 c-15 15 -29 25 -31 23 -3 -3 10 -17 27
-32 l32 -27 -247 -247 c-190 -190 -247 -253 -244 -269 2 -16 117 92 561 531
471 467 558 556 557 580 0 15 -3 27 -7 27 -4 0 -145 -138 -314 -306z"/>
<path d="M4563 4113 c-420 -424 -542 -554 -543 -573 0 -20 55 30 295 270 162
162 295 292 295 289 0 -3 115 110 255 251 205 206 255 262 255 283 0 15 -3 27
-7 27 -5 0 -252 -246 -550 -547z"/>
<path d="M4585 3531 c-376 -378 -531 -541 -533 -559 -3 -19 127 104 519 492
287 284 529 526 536 536 8 11 13 30 11 43 -3 18 -95 -70 -533 -512z"/>
<path d="M4999 3755 c-64 -60 -117 -115 -118 -120 0 -6 -188 -197 -416 -425
-313 -313 -415 -421 -415 -439 0 -18 112 87 523 494 287 285 528 527 535 537
7 10 12 28 10 41 -3 19 -19 7 -119 -88z"/>
<path d="M562 2907 c-408 -408 -513 -518 -510 -536 2 -17 99 75 516 492 408
408 513 518 510 536 -2 17 -99 -75 -516 -492z"/>
<path d="M572 2717 c-416 -416 -523 -528 -520 -546 2 -17 101 77 526 502 416
416 523 528 520 546 -2 17 -101 -77 -526 -502z"/>
<path d="M560 2506 c-406 -406 -546 -552 -548 -571 -3 -20 0 -25 10 -18 7 4
255 252 551 549 420 423 538 546 535 563 -2 17 -112 -88 -548 -523z"/>
<path d="M560 2306 c-413 -412 -546 -550 -548 -570 -3 -24 -1 -26 15 -18 10 6
31 24 47 41 16 17 34 28 39 24 6 -4 7 -1 2 6 -5 9 156 176 495 516 391 391
501 507 498 523 -2 17 -113 -88 -548 -522z"/>
<path d="M3985 1130 c-879 -879 -1085 -1090 -1065 -1090 37 0 2163 2127 2158
2159 -2 17 -213 -189 -1093 -1069z"/>
<path d="M5094 2045 c-12 -8 -25 -11 -29 -7 -5 4 -5 1 0 -7 10 -17 -1957
-1987 -1974 -1977 -6 4 -10 4 -9 -1 1 -4 -3 -18 -10 -31 -12 -20 -11 -22 10
-22 13 0 46 18 73 41 58 48 66 55 45 44 -8 -4 399 407 904 913 506 507 925
918 930 915 6 -3 8 -3 5 0 -3 4 14 27 38 52 27 29 43 55 43 70 0 29 0 29 -26
10z"/>
<path d="M5056 1810 c-29 -27 -56 -47 -59 -43 -4 3 -7 -2 -7 -13 0 -27 -1614
-1639 -1630 -1629 -8 5 -11 4 -7 -2 3 -5 -12 -27 -34 -49 -22 -21 -45 -47 -50
-56 -8 -15 -6 -18 14 -18 34 0 1837 1803 1837 1837 0 13 -3 23 -6 23 -3 0 -29
-22 -58 -50z"/>
<path d="M4984 1540 c-71 -69 -137 -136 -146 -150 -15 -22 -880 -886 -1236
-1235 -68 -66 -127 -128 -133 -137 -8 -15 -5 -18 17 -18 22 0 64 36 211 183
101 101 186 181 188 178 3 -2 5 2 5 10 0 13 838 859 851 859 8 0 346 341 365
368 8 12 14 32 12 45 -3 19 -22 5 -134 -103z"/>
<path d="M4748 1103 c-197 -197 -361 -357 -363 -355 -3 1 -4 0 -2 -3 1 -2
-162 -170 -363 -372 -306 -308 -361 -367 -343 -371 13 -2 35 6 50 17 16 11
335 327 711 703 568 569 682 688 682 711 0 15 -3 27 -7 27 -4 0 -168 -161
-365 -357z"/>
<path d="M4496 650 c-339 -338 -622 -623 -627 -632 -8 -15 -5 -18 18 -18 23 0
123 95 611 583 321 320 592 594 603 610 11 15 19 37 17 50 -4 18 -106 -80
-622 -593z"/>
<path d="M4596 550 c-284 -283 -522 -523 -527 -533 -8 -14 -5 -17 18 -17 23 0
108 81 511 483 266 265 492 494 503 510 11 15 19 37 17 50 -4 18 -89 -62 -522
-493z"/>
<path d="M4696 450 c-229 -228 -422 -423 -427 -432 -8 -15 -5 -18 18 -18 22 0
93 66 411 383 211 210 392 394 403 410 11 15 19 37 17 50 -4 18 -72 -45 -422
-393z"/>
<path d="M4796 350 c-174 -173 -322 -323 -327 -332 -8 -15 -5 -18 17 -18 23 0
80 52 312 282 156 156 293 295 303 311 11 15 19 37 17 50 -4 18 -54 -28 -322
-293z"/>
<path d="M4896 250 c-119 -118 -222 -223 -227 -232 -8 -15 -5 -18 17 -18 21 0
65 37 211 183 205 202 226 227 221 260 -3 19 -37 -11 -222 -193z"/>
<path d="M4996 150 c-136 -133 -149 -150 -111 -150 18 0 49 23 111 82 102 98
127 130 122 161 -3 19 -19 7 -122 -93z"/>
</g>
</svg>
